<svg width="119" height="73" viewBox="0 0 119 73" fill="none" xmlns="http://www.w3.org/2000/svg">
<path fill-rule="evenodd" clip-rule="evenodd" d="M28.2104 64.2623C29.3981 64.2624 30.2226 65.1381 30.2226 66.7322V68.5215C30.2226 70.0913 29.4466 70.9557 28.2104 70.9558C27.7014 70.9558 27.2037 70.7369 26.8643 70.3475V73H25.9314V64.3952H26.647L26.7438 64.9916C27.059 64.5658 27.6167 64.2623 28.2104 64.2623ZM28.0404 65.1504C27.3738 65.1505 26.8643 65.6618 26.8643 66.7084V68.5215C26.8643 69.4463 27.3133 70.0546 28.0404 70.0546C28.8403 70.0546 29.252 69.5924 29.252 68.5215V66.7322C29.252 65.6248 28.804 65.1504 28.0404 65.1504Z" fill="#100918"/>
<path fill-rule="evenodd" clip-rule="evenodd" d="M22.4149 64.2493C23.6994 64.2495 24.4259 65.0772 24.426 66.4643V70.8099H23.6384L23.5663 70.2005C23.2875 70.6386 22.8266 70.9676 22.1115 70.9676C20.948 70.9676 20.1241 70.2131 20.1241 68.9839C20.1241 67.7182 20.9845 67.0369 22.3784 67.0369H23.4695V66.4772C23.4695 65.6375 23.1174 65.1742 22.3902 65.1742C21.7721 65.1742 21.3239 65.5157 21.2754 66.1607H20.3178C20.3663 64.9923 21.1787 64.2493 22.4149 64.2493ZM22.3665 67.8883C21.5424 67.8883 21.0937 68.2779 21.0936 68.9958C21.0936 69.7017 21.5661 70.0795 22.2934 70.0795C23.0206 70.0795 23.4695 69.6165 23.4695 68.9472V67.8883H22.3665Z" fill="#100918"/>
<path fill-rule="evenodd" clip-rule="evenodd" d="M66.0672 64.2493C67.3516 64.2495 68.0782 65.0772 68.0783 66.4643V70.8099H67.2906L67.2186 70.2005C66.9398 70.6386 66.4789 70.9676 65.7638 70.9676C64.6003 70.9676 63.7764 70.2131 63.7763 68.9839C63.7763 67.7182 64.6368 67.0369 66.0306 67.0369H67.1217V66.4772C67.1217 65.6375 66.7697 65.1742 66.0425 65.1742C65.4244 65.1742 64.9762 65.5157 64.9277 66.1607H63.97C64.0185 64.9923 64.8309 64.2493 66.0672 64.2493ZM66.0188 67.8883C65.1947 67.8883 64.7459 68.2779 64.7458 68.9958C64.7458 69.7017 65.2184 70.0795 65.9456 70.0795C66.6728 70.0795 67.1217 69.6165 67.1217 68.9472V67.8883H66.0188Z" fill="#100918"/>
<path fill-rule="evenodd" clip-rule="evenodd" d="M18.962 70.8099H18.2475L18.1496 70.2135C17.8345 70.6512 17.2775 70.9556 16.684 70.9558C15.4962 70.9558 14.6719 70.079 14.6719 68.4847V66.6836C14.6719 65.1137 15.4478 64.2493 16.684 64.2493C17.1928 64.2495 17.6898 64.4684 18.0291 64.8576V61.9976H18.962V70.8099ZM16.853 65.1504C16.0532 65.1505 15.6414 65.6128 15.6414 66.6836V68.4847C15.6414 69.5799 16.0895 70.0545 16.853 70.0546C17.5196 70.0546 18.0291 69.5554 18.0291 68.4966V66.6836C18.029 65.7587 17.5802 65.1504 16.853 65.1504Z" fill="#100918"/>
<path fill-rule="evenodd" clip-rule="evenodd" d="M56.1731 64.2493C57.5064 64.2493 58.3553 65.0896 58.3553 66.6231V68.582C58.3553 70.1154 57.5064 70.9558 56.1731 70.9558C54.8402 70.9555 53.9802 70.1152 53.9802 68.582V66.6231C53.9802 65.0898 54.8402 64.2495 56.1731 64.2493ZM56.1731 65.1871C55.4099 65.1874 54.9497 65.6254 54.9497 66.6231V68.582C54.9497 69.5797 55.4099 70.0307 56.1731 70.0309C56.9367 70.0309 57.3977 69.5799 57.3977 68.582V66.6231C57.3977 65.6251 56.9367 65.1871 56.1731 65.1871Z" fill="#100918"/>
<path d="M35.493 69.6171C35.8806 69.6173 36.1472 69.8847 36.1472 70.274C36.1472 70.6754 35.8806 70.9426 35.493 70.9428C35.1051 70.9428 34.8377 70.6756 34.8377 70.274C34.8377 69.8845 35.1051 69.6171 35.493 69.6171Z" fill="#100918"/>
<path fill-rule="evenodd" clip-rule="evenodd" d="M75.2995 64.2493C76.6206 64.2493 77.4688 65.1016 77.4688 66.5864V68.0104H74.1363V68.5949C74.1365 69.568 74.5724 70.0058 75.3113 70.006C76.1233 70.006 76.4999 69.6413 76.609 68.8262H77.5538C77.4566 70.1767 76.6449 70.9428 75.2877 70.9428C73.9909 70.9428 73.167 70.0916 73.1668 68.5949V66.5864C73.1668 65.1016 74.0027 64.2494 75.2995 64.2493ZM75.3113 65.1623C74.5723 65.1625 74.1363 65.6132 74.1363 66.5745V67.2195H76.524V66.5745C76.524 65.613 76.0749 65.1623 75.3113 65.1623Z" fill="#100918"/>
<path d="M79.1926 69.6171C79.5802 69.6173 79.8468 69.8847 79.8468 70.274C79.8468 70.6754 79.5802 70.9426 79.1926 70.9428C78.8047 70.9428 78.5373 70.6756 78.5373 70.274C78.5373 69.8845 78.8047 69.6171 79.1926 69.6171Z" fill="#100918"/>
<path fill-rule="evenodd" clip-rule="evenodd" d="M85.751 64.2493C87.0721 64.2493 87.9202 65.1016 87.9202 66.5864V68.0104H84.5878V68.5949C84.5879 69.568 85.0239 70.0058 85.7628 70.006C86.5747 70.006 86.9513 69.6413 87.0605 68.8262H88.0052C87.9081 70.1767 87.0964 70.9428 85.7391 70.9428C84.4424 70.9428 83.6185 70.0916 83.6183 68.5949V66.5864C83.6183 65.1016 84.4542 64.2494 85.751 64.2493ZM85.7628 65.1623C85.0237 65.1625 84.5878 65.6132 84.5878 66.5745V67.2195H86.9755V66.5745C86.9755 65.613 86.5264 65.1623 85.7628 65.1623Z" fill="#100918"/>
<path d="M96.664 64.2493C97.9848 64.2495 98.7728 65.0893 98.8214 66.5615H97.852C97.8276 65.6249 97.403 65.1743 96.664 65.1742C95.949 65.1742 95.5247 65.6247 95.5245 66.5615V68.6187C95.5245 69.568 95.9489 70.006 96.664 70.006C97.4152 70.0059 97.8393 69.5678 97.8756 68.6187H98.8333C98.7969 70.1033 97.9728 70.9426 96.664 70.9428C95.3793 70.9428 94.555 70.1035 94.555 68.6187V66.5615C94.5552 65.0892 95.3794 64.2493 96.664 64.2493Z" fill="#100918"/>
<path fill-rule="evenodd" clip-rule="evenodd" d="M101.955 64.2493C103.276 64.2493 104.124 65.1016 104.124 66.5864V68.0104H100.792V68.5949C100.792 69.568 101.228 70.0058 101.967 70.006C102.779 70.006 103.155 69.6413 103.264 68.8262H104.209C104.112 70.1767 103.3 70.9428 101.943 70.9428C100.646 70.9428 99.8223 70.0916 99.8222 68.5949V66.5864C99.8222 65.1016 100.658 64.2494 101.955 64.2493ZM101.967 65.1623C101.228 65.1625 100.792 65.6132 100.792 66.5745V67.2195H103.179V66.5745C103.179 65.613 102.73 65.1623 101.967 65.1623Z" fill="#100918"/>
<path d="M108.31 69.6171C108.697 69.6173 108.964 69.8847 108.964 70.274C108.964 70.6754 108.697 70.9426 108.31 70.9428C107.922 70.9428 107.655 70.6756 107.655 70.274C107.655 69.8845 107.922 69.6171 108.31 69.6171Z" fill="#100918"/>
<path d="M32.7093 64.4081H33.9457V65.2844H32.7093V68.8262C32.7094 69.5926 33.0128 69.9823 33.7035 69.9823H34.0791V70.8823H33.6788C32.4548 70.8823 31.7636 70.1037 31.7635 68.8262V65.2844H30.8187V64.4081H31.7635V62.9106H32.7093V64.4081Z" fill="#100918"/>
<path d="M70.905 64.4081H72.1414V65.2844H70.905V68.8262C70.9051 69.5926 71.2085 69.9823 71.8993 69.9823H72.2748V70.8823H71.8745C70.6505 70.8823 69.9594 70.1037 69.9592 68.8262V65.2844H69.0144V64.4081H69.9592V62.9106H70.905V64.4081Z" fill="#100918"/>
<path fill-rule="evenodd" clip-rule="evenodd" d="M13.995 70.8099H12.9524L12.5037 68.9591H10.0439L9.59517 70.8099H8.5525L10.7347 62.2904H11.8129L13.995 70.8099ZM11.2555 63.5556C11.207 63.8842 11.0854 64.6028 10.952 65.1504L10.2612 68.0342H12.2852L11.5944 65.1504C11.4611 64.6028 11.3405 63.8842 11.2921 63.5556H11.2555Z" fill="#100918"/>
<path d="M41.2035 70.8099H40.2092V62.2904H41.2035V70.8099Z" fill="#100918"/>
<path d="M45.3063 64.2493C46.3728 64.2494 47.0517 65.0047 47.0517 66.7571V70.8099H46.1058V66.8295C46.1058 65.6735 45.7903 65.1623 45.0632 65.1623C44.2999 65.1626 43.7913 65.796 43.7913 66.891V70.8099H42.8455V64.4081H43.561L43.6815 65.1623C44.0088 64.6025 44.5549 64.2493 45.3063 64.2493Z" fill="#100918"/>
<path d="M50.9523 64.2493C52.0187 64.2494 52.6976 65.0047 52.6976 66.7571V70.8099H51.7517V66.8295C51.7517 65.6735 51.4362 65.1623 50.7091 65.1623C49.9458 65.1626 49.4372 65.796 49.4372 66.891V70.8099H48.4914V64.4081H49.2069L49.3275 65.1623C49.6547 64.6025 50.2008 64.2493 50.9523 64.2493Z" fill="#100918"/>
<path d="M60.6161 67.7057C60.7615 68.3142 60.9552 69.2151 61.04 69.6289H61.1003C61.1851 69.2151 61.3798 68.3142 61.5253 67.7057L62.3732 64.4081H63.3793L61.5974 70.8099H60.5429L58.761 64.4081H59.7671L60.6161 67.7057Z" fill="#100918"/>
<path d="M91.3162 65.4303L92.6978 62.2904H93.8007L91.8736 66.3789L93.9105 70.8099H92.8065L91.3162 67.3773L89.8259 70.8099H88.7229L90.7588 66.3789L88.8316 62.2904H89.9345L91.3162 65.4303Z" fill="#100918"/>
<path d="M106.417 70.8099H105.471V61.9976H106.417V70.8099Z" fill="#100918"/>
<path d="M19.7389 5.53251C19.7547 5.53719 19.9019 5.80442 20.0692 6.13217C20.4962 6.96872 21.7546 8.19572 22.6065 8.60643C23.3927 8.98545 24.1655 9.19482 24.7801 9.19637L25.2449 9.19745V12.9153C25.2449 14.9601 25.2458 16.6647 25.2471 16.7024C25.2473 16.74 25.1042 16.7861 24.9285 16.805C24.7516 16.8241 24.0751 16.9638 23.4243 17.1162C17.4667 18.5117 13.2382 22.7512 11.8882 28.6815C11.5109 30.3384 11.3843 31.9665 11.5299 33.2767C11.6877 34.6968 12.1158 36.5268 12.5747 37.739C14.3947 42.5464 18.1161 45.9244 22.8862 47.0991C23.8466 47.3356 24.3277 47.4175 24.9759 47.4556L25.3428 47.4772L25.3417 50.2335C25.3415 51.7496 25.3139 53.4734 25.2793 54.0638L25.2158 55.1367L24.4917 55.1972C23.5946 55.272 22.5228 55.6947 21.7209 56.2895C21.1011 56.7492 20.2811 57.6967 19.9993 58.2797C19.9039 58.4771 19.7815 58.6393 19.727 58.6395C19.5235 58.6395 17.0056 57.7583 16.1611 57.3916C13.9412 56.4276 11.6901 55.1332 11.7978 54.8828C12.3072 53.7198 12.4612 52.2169 12.1884 51.0709C11.7165 49.0887 10.1223 47.4028 8.14468 46.7944C7.41731 46.5706 7.21426 46.5488 6.23258 46.588C5.34642 46.6235 5.01406 46.6806 4.5174 46.8808L3.90191 47.1283L3.73728 46.8733C3.64664 46.7326 3.54928 46.5953 3.521 46.5686C3.49281 46.542 3.42095 46.4328 3.36174 46.3266C2.11063 44.082 1.38676 42.4833 0.801877 40.6757C0.416254 39.4842 -0.0623224 37.6093 0.00669374 37.5607C0.0271475 37.5493 0.353004 37.3899 0.729784 37.2074C1.6863 36.7439 2.75783 35.6691 3.238 34.691C3.81171 33.5224 3.8614 33.3048 3.85457 31.9877C3.84957 31.0115 3.8074 30.6625 3.63506 30.166C3.15409 28.7806 2.03646 27.4775 0.773901 26.8296C0.372653 26.6235 0.0322289 26.4454 0.017454 26.4341C-0.0467986 26.3806 0.701612 23.7271 1.05259 22.7649C1.7322 20.9019 3.20435 17.9419 3.91159 17.0168L4.06116 16.8223L4.64652 17.0287C5.46435 17.3171 7.06376 17.388 7.9241 17.1745C8.99024 16.9098 9.75067 16.4712 10.6185 15.6197C11.5175 14.7376 11.9173 14.0634 12.2239 12.9153C12.5262 11.7836 12.4311 10.2887 11.9861 9.18448C11.9369 9.06224 12.1092 8.91534 12.7361 8.54485C14.6671 7.40398 16.2931 6.6595 18.2959 6.00143C19.0764 5.74496 19.7261 5.53444 19.7389 5.53251Z" fill="#100918"/>
<path fill-rule="evenodd" clip-rule="evenodd" d="M51.6581 55.3203H43.0585L42.4129 47.9559H36.9381L36.3699 55.3203H27.5379L31.9281 9.6815H47.3454L51.6581 55.3203ZM37.5837 40.6692H41.7156L39.7271 17.4608H39.3139L37.5837 40.6692Z" fill="#100918"/>
<path d="M62.8144 55.3203H54.034V9.6815H62.8144V55.3203Z" fill="#100918"/>
<path d="M77.3536 25.3439L79.4454 9.65557H88.3549L84.4812 31.1266L89.3363 55.3203H80.1427L77.2762 37.4797L74.3322 55.3203H65.1128L69.9936 31.1266L66.1199 9.65557H75.0036L77.3536 25.3439Z" fill="#100918"/>
<path fill-rule="evenodd" clip-rule="evenodd" d="M106.673 0.0048512C106.718 0.0802834 107.3 1.85777 107.967 3.95395C108.634 6.0502 109.433 8.55089 109.742 9.51078C110.051 10.4709 111.023 13.4988 111.901 16.2399L113.496 21.2252L111.723 22.9183L112.134 23.8745C112.682 25.1521 113.283 27.1004 113.432 28.0786C113.468 28.3184 113.536 28.7106 113.583 28.9505C114.046 31.2919 113.874 35.0174 113.175 37.8028C113.059 38.2645 113.014 38.6285 113.067 38.679C113.179 38.7847 118.756 40.7792 118.941 40.7794C119.039 40.7794 119.018 40.9394 118.856 41.4126C118.688 41.9026 118.604 42.0311 118.483 41.9831C117.247 41.4951 112.699 39.9231 112.6 39.9496C112.536 39.9723 112.425 40.1576 112.356 40.3613C112.145 40.9798 111.269 42.7804 110.833 43.4903C110.607 43.8581 110.422 44.201 110.422 44.2521C110.425 44.3048 111.56 45.0984 112.946 46.0165C114.334 46.9354 115.511 47.7229 115.561 47.7668C115.657 47.8505 115.036 48.8555 114.919 48.8073C114.882 48.7919 114.165 48.3235 113.325 47.7668C112.486 47.2101 111.322 46.4393 110.74 46.0543L109.68 45.3541L109.461 45.6124C109.341 45.7542 109.053 46.1101 108.82 46.4033C108.284 47.078 108.136 47.2357 107.078 48.2617L106.211 49.1023L106.965 49.918C107.38 50.3666 108.36 51.4014 109.142 52.2172L110.563 53.7007L110.11 54.0735C109.861 54.2781 109.63 54.4469 109.598 54.4484C109.529 54.451 108.973 53.895 107.418 52.2691C106.806 51.6293 106.058 50.8553 105.756 50.549L105.208 49.9926L104.419 50.5631C100.748 53.2199 96.5119 54.8179 91.9381 55.2717L91.4539 55.3203V9.4492L92.2803 9.51727C92.7345 9.55503 93.7089 9.70667 94.4463 9.85437L95.7881 10.1234L101.19 4.99552C105.146 1.24082 106.61 -0.0916618 106.673 0.0048512ZM106.347 28.0786C106.311 28.0786 103.474 30.7544 100.044 34.0255L93.8061 39.9734L93.861 40.5461C94.0167 42.1922 94.5971 43.4557 95.6343 44.4076C98.3548 46.9047 102.111 45.9473 104.844 42.0598C105.745 40.7778 106.491 38.9672 106.924 37.0086C107.167 35.911 107.195 35.5748 107.199 33.7024C107.203 32.1193 107.16 31.3961 107.025 30.6965C106.786 29.4625 106.429 28.0804 106.347 28.0786Z" fill="#100918"/>
</svg>
